<mxfile host="Electron" agent="Mozilla/5.0 (X11; Linux x86_64) AppleWebKit/537.36 (KHTML, like Gecko) draw.io/24.2.5 Chrome/120.0.6099.109 Electron/28.1.0 Safari/537.36" modified="2025-01-29T09:22:02.028Z" version="24.2.5" etag="nNTDQVjG7z5b5if0ObxT" type="device">
  <diagram name="第 1 页" id="zancMkxsmX6OQeibhbg-">
    <mxGraphModel dx="1903" dy="1154" grid="1" gridSize="10" guides="1" tooltips="1" connect="1" arrows="1" fold="1" page="1" pageScale="1" pageWidth="1169" pageHeight="827" math="0" shadow="0">
      <root>
        <mxCell id="0" />
        <mxCell id="1" parent="0" />
        <mxCell id="ub7DF7j2MajTZg6ZbMNY-3" value="" style="curved=1;endArrow=classic;html=1;rounded=0;exitX=0;exitY=0.5;exitDx=0;exitDy=0;entryX=1;entryY=1;entryDx=0;entryDy=0;sketch=1;curveFitting=1;jiggle=2;" edge="1" parent="1" source="C8lTrhYq0D7tJRm09pKi-4" target="FcUB3pWpSzq1RaAI_8C1-1">
          <mxGeometry width="50" height="50" relative="1" as="geometry">
            <mxPoint x="560" y="610" as="sourcePoint" />
            <mxPoint x="610" y="560" as="targetPoint" />
            <Array as="points">
              <mxPoint x="750" y="479" />
              <mxPoint x="650" y="500" />
              <mxPoint x="620" y="490" />
              <mxPoint x="580" y="500" />
              <mxPoint x="550" y="500" />
              <mxPoint x="510" y="493" />
            </Array>
          </mxGeometry>
        </mxCell>
        <mxCell id="FcUB3pWpSzq1RaAI_8C1-2" style="edgeStyle=orthogonalEdgeStyle;rounded=0;orthogonalLoop=1;jettySize=auto;html=1;entryX=0;entryY=0.5;entryDx=0;entryDy=0;sketch=1;curveFitting=1;jiggle=2;" parent="1" source="5pxhj9BzD-DlE7Q7dWqP-36" target="FcUB3pWpSzq1RaAI_8C1-1" edge="1">
          <mxGeometry relative="1" as="geometry" />
        </mxCell>
        <mxCell id="5pxhj9BzD-DlE7Q7dWqP-36" value="&lt;font style=&quot;font-size: 15px;&quot;&gt;ChatClient&lt;/font&gt;" style="rounded=1;whiteSpace=wrap;html=1;fillColor=#d5e8d4;strokeColor=#82b366;sketch=1;curveFitting=1;jiggle=2;" parent="1" vertex="1">
          <mxGeometry x="80" y="459" width="80" height="40" as="geometry" />
        </mxCell>
        <mxCell id="FcUB3pWpSzq1RaAI_8C1-3" style="edgeStyle=orthogonalEdgeStyle;rounded=0;orthogonalLoop=1;jettySize=auto;html=1;entryX=1;entryY=0.5;entryDx=0;entryDy=0;sketch=1;curveFitting=1;jiggle=2;" parent="1" source="5pxhj9BzD-DlE7Q7dWqP-37" target="FcUB3pWpSzq1RaAI_8C1-1" edge="1">
          <mxGeometry relative="1" as="geometry" />
        </mxCell>
        <mxCell id="5pxhj9BzD-DlE7Q7dWqP-37" value="&lt;font style=&quot;font-size: 15px;&quot;&gt;ReActClient&lt;/font&gt;" style="rounded=1;whiteSpace=wrap;html=1;fillColor=#d5e8d4;strokeColor=#82b366;sketch=1;curveFitting=1;jiggle=2;" parent="1" vertex="1">
          <mxGeometry x="640" y="459" width="80" height="40" as="geometry" />
        </mxCell>
        <mxCell id="ZDp6D6EU1gW6EysXJVMl-10" style="edgeStyle=orthogonalEdgeStyle;rounded=0;orthogonalLoop=1;jettySize=auto;html=1;entryX=0.5;entryY=1;entryDx=0;entryDy=0;sketch=1;curveFitting=1;jiggle=2;" parent="1" source="5pxhj9BzD-DlE7Q7dWqP-43" target="5pxhj9BzD-DlE7Q7dWqP-37" edge="1">
          <mxGeometry relative="1" as="geometry" />
        </mxCell>
        <mxCell id="ZDp6D6EU1gW6EysXJVMl-13" style="edgeStyle=orthogonalEdgeStyle;rounded=0;orthogonalLoop=1;jettySize=auto;html=1;entryX=0.5;entryY=1;entryDx=0;entryDy=0;sketch=1;curveFitting=1;jiggle=2;" parent="1" source="5pxhj9BzD-DlE7Q7dWqP-43" target="5pxhj9BzD-DlE7Q7dWqP-36" edge="1">
          <mxGeometry relative="1" as="geometry" />
        </mxCell>
        <mxCell id="C8lTrhYq0D7tJRm09pKi-6" style="edgeStyle=orthogonalEdgeStyle;rounded=0;orthogonalLoop=1;jettySize=auto;html=1;entryX=0.5;entryY=1;entryDx=0;entryDy=0;sketch=1;curveFitting=1;jiggle=2;" parent="1" source="5pxhj9BzD-DlE7Q7dWqP-43" target="C8lTrhYq0D7tJRm09pKi-4" edge="1">
          <mxGeometry relative="1" as="geometry" />
        </mxCell>
        <mxCell id="5pxhj9BzD-DlE7Q7dWqP-43" value="&lt;span style=&quot;font-size: 15px;&quot;&gt;BaseClient&lt;/span&gt;" style="rounded=1;whiteSpace=wrap;html=1;fillColor=#d5e8d4;strokeColor=#82b366;" parent="1" vertex="1">
          <mxGeometry x="360" y="580" width="80" height="40" as="geometry" />
        </mxCell>
        <mxCell id="ZDp6D6EU1gW6EysXJVMl-6" style="edgeStyle=orthogonalEdgeStyle;rounded=0;orthogonalLoop=1;jettySize=auto;html=1;entryX=0.5;entryY=1;entryDx=0;entryDy=0;sketch=1;curveFitting=1;jiggle=2;" parent="1" source="5pxhj9BzD-DlE7Q7dWqP-45" edge="1">
          <mxGeometry relative="1" as="geometry">
            <mxPoint x="400" y="499" as="targetPoint" />
          </mxGeometry>
        </mxCell>
        <mxCell id="ZDp6D6EU1gW6EysXJVMl-7" style="edgeStyle=orthogonalEdgeStyle;rounded=0;orthogonalLoop=1;jettySize=auto;html=1;entryX=0.5;entryY=0;entryDx=0;entryDy=0;sketch=1;curveFitting=1;jiggle=2;" parent="1" source="5pxhj9BzD-DlE7Q7dWqP-45" target="5pxhj9BzD-DlE7Q7dWqP-43" edge="1">
          <mxGeometry relative="1" as="geometry" />
        </mxCell>
        <mxCell id="5pxhj9BzD-DlE7Q7dWqP-45" value="&lt;font style=&quot;font-size: 15px;&quot;&gt;PyQt5&lt;/font&gt;" style="rounded=1;whiteSpace=wrap;html=1;fillColor=#f5f5f5;fontColor=#333333;strokeColor=#666666;" parent="1" vertex="1">
          <mxGeometry x="370" y="520" width="60" height="40" as="geometry" />
        </mxCell>
        <mxCell id="5pxhj9BzD-DlE7Q7dWqP-96" style="edgeStyle=orthogonalEdgeStyle;rounded=0;orthogonalLoop=1;jettySize=auto;html=1;entryX=0.5;entryY=0;entryDx=0;entryDy=0;sketch=1;curveFitting=1;jiggle=2;" parent="1" source="5pxhj9BzD-DlE7Q7dWqP-49" target="5pxhj9BzD-DlE7Q7dWqP-36" edge="1">
          <mxGeometry relative="1" as="geometry" />
        </mxCell>
        <mxCell id="5pxhj9BzD-DlE7Q7dWqP-49" value="&lt;font style=&quot;font-size: 15px;&quot;&gt;ChatAgent&lt;/font&gt;" style="rounded=1;whiteSpace=wrap;html=1;fillColor=#ffe6cc;strokeColor=#d79b00;sketch=1;curveFitting=1;jiggle=2;" parent="1" vertex="1">
          <mxGeometry x="80" y="389" width="80" height="40" as="geometry" />
        </mxCell>
        <mxCell id="5pxhj9BzD-DlE7Q7dWqP-95" style="edgeStyle=orthogonalEdgeStyle;rounded=0;orthogonalLoop=1;jettySize=auto;html=1;entryX=0.5;entryY=0;entryDx=0;entryDy=0;sketch=1;curveFitting=1;jiggle=2;" parent="1" source="5pxhj9BzD-DlE7Q7dWqP-51" target="5pxhj9BzD-DlE7Q7dWqP-37" edge="1">
          <mxGeometry relative="1" as="geometry" />
        </mxCell>
        <mxCell id="C8lTrhYq0D7tJRm09pKi-1" style="edgeStyle=orthogonalEdgeStyle;rounded=0;orthogonalLoop=1;jettySize=auto;html=1;textShadow=0;sketch=1;curveFitting=1;jiggle=2;entryX=0;entryY=0.5;entryDx=0;entryDy=0;" parent="1" source="5pxhj9BzD-DlE7Q7dWqP-51" target="C8lTrhYq0D7tJRm09pKi-2" edge="1">
          <mxGeometry relative="1" as="geometry">
            <mxPoint x="790" y="409" as="targetPoint" />
          </mxGeometry>
        </mxCell>
        <mxCell id="5pxhj9BzD-DlE7Q7dWqP-51" value="&lt;font style=&quot;font-size: 15px;&quot;&gt;ReAct&lt;/font&gt;" style="rounded=1;whiteSpace=wrap;html=1;fillColor=#ffe6cc;strokeColor=#d79b00;sketch=1;curveFitting=1;jiggle=2;" parent="1" vertex="1">
          <mxGeometry x="640" y="389" width="80" height="40" as="geometry" />
        </mxCell>
        <mxCell id="5pxhj9BzD-DlE7Q7dWqP-93" style="edgeStyle=orthogonalEdgeStyle;rounded=0;orthogonalLoop=1;jettySize=auto;html=1;sketch=1;curveFitting=1;jiggle=2;" parent="1" source="5pxhj9BzD-DlE7Q7dWqP-53" target="5pxhj9BzD-DlE7Q7dWqP-51" edge="1">
          <mxGeometry relative="1" as="geometry" />
        </mxCell>
        <mxCell id="5pxhj9BzD-DlE7Q7dWqP-94" style="edgeStyle=orthogonalEdgeStyle;rounded=0;orthogonalLoop=1;jettySize=auto;html=1;entryX=1;entryY=0.5;entryDx=0;entryDy=0;sketch=1;curveFitting=1;jiggle=2;" parent="1" source="5pxhj9BzD-DlE7Q7dWqP-53" target="5pxhj9BzD-DlE7Q7dWqP-49" edge="1">
          <mxGeometry relative="1" as="geometry" />
        </mxCell>
        <mxCell id="5pxhj9BzD-DlE7Q7dWqP-53" value="&lt;font style=&quot;font-size: 15px;&quot;&gt;BaseAgent&lt;/font&gt;" style="rounded=1;whiteSpace=wrap;html=1;fillColor=#ffe6cc;strokeColor=#d79b00;" parent="1" vertex="1">
          <mxGeometry x="360" y="389" width="80" height="40" as="geometry" />
        </mxCell>
        <mxCell id="5pxhj9BzD-DlE7Q7dWqP-76" value="" style="edgeStyle=orthogonalEdgeStyle;rounded=0;orthogonalLoop=1;jettySize=auto;html=1;sketch=1;curveFitting=1;jiggle=2;" parent="1" source="5pxhj9BzD-DlE7Q7dWqP-72" target="5pxhj9BzD-DlE7Q7dWqP-53" edge="1">
          <mxGeometry relative="1" as="geometry" />
        </mxCell>
        <mxCell id="5pxhj9BzD-DlE7Q7dWqP-72" value="&lt;font style=&quot;font-size: 15px;&quot;&gt;BaseChatModel&lt;/font&gt;" style="rounded=1;whiteSpace=wrap;html=1;fillColor=#fff2cc;strokeColor=#d6b656;" parent="1" vertex="1">
          <mxGeometry x="340" y="290" width="120" height="40" as="geometry" />
        </mxCell>
        <mxCell id="5pxhj9BzD-DlE7Q7dWqP-80" style="edgeStyle=orthogonalEdgeStyle;rounded=0;orthogonalLoop=1;jettySize=auto;html=1;entryX=0.5;entryY=0;entryDx=0;entryDy=0;sketch=1;curveFitting=1;jiggle=2;" parent="1" source="5pxhj9BzD-DlE7Q7dWqP-73" target="5pxhj9BzD-DlE7Q7dWqP-53" edge="1">
          <mxGeometry relative="1" as="geometry">
            <Array as="points">
              <mxPoint x="680" y="360" />
              <mxPoint x="400" y="360" />
            </Array>
          </mxGeometry>
        </mxCell>
        <mxCell id="5pxhj9BzD-DlE7Q7dWqP-73" value="&lt;font style=&quot;font-size: 15px;&quot;&gt;BaseTool&lt;/font&gt;" style="rounded=1;whiteSpace=wrap;html=1;fillColor=#f8cecc;strokeColor=#b85450;" parent="1" vertex="1">
          <mxGeometry x="640" y="290" width="80" height="40" as="geometry" />
        </mxCell>
        <mxCell id="5pxhj9BzD-DlE7Q7dWqP-81" style="edgeStyle=orthogonalEdgeStyle;rounded=0;orthogonalLoop=1;jettySize=auto;html=1;entryX=0.5;entryY=0;entryDx=0;entryDy=0;sketch=1;curveFitting=1;jiggle=2;" parent="1" source="5pxhj9BzD-DlE7Q7dWqP-74" target="5pxhj9BzD-DlE7Q7dWqP-53" edge="1">
          <mxGeometry relative="1" as="geometry">
            <Array as="points">
              <mxPoint x="120" y="360" />
              <mxPoint x="400" y="360" />
            </Array>
          </mxGeometry>
        </mxCell>
        <mxCell id="5pxhj9BzD-DlE7Q7dWqP-92" style="edgeStyle=orthogonalEdgeStyle;rounded=0;orthogonalLoop=1;jettySize=auto;html=1;entryX=0;entryY=0.5;entryDx=0;entryDy=0;curved=0;shadow=0;sketch=1;curveFitting=1;jiggle=2;" parent="1" source="5pxhj9BzD-DlE7Q7dWqP-74" target="5pxhj9BzD-DlE7Q7dWqP-90" edge="1">
          <mxGeometry relative="1" as="geometry">
            <Array as="points">
              <mxPoint x="120" y="70" />
            </Array>
          </mxGeometry>
        </mxCell>
        <mxCell id="5pxhj9BzD-DlE7Q7dWqP-74" value="&lt;font style=&quot;font-size: 15px;&quot;&gt;BaseMemory&lt;/font&gt;" style="rounded=1;whiteSpace=wrap;html=1;fillColor=#dae8fc;strokeColor=#6c8ebf;" parent="1" vertex="1">
          <mxGeometry x="80" y="290" width="90" height="40" as="geometry" />
        </mxCell>
        <mxCell id="5pxhj9BzD-DlE7Q7dWqP-82" value="&lt;span style=&quot;font-size: 15px;&quot;&gt;BaseFnCallModel&lt;/span&gt;" style="rounded=1;whiteSpace=wrap;html=1;fillColor=#fff2cc;strokeColor=#d6b656;sketch=1;curveFitting=1;jiggle=2;" parent="1" vertex="1">
          <mxGeometry x="340" y="230" width="120" height="40" as="geometry" />
        </mxCell>
        <mxCell id="5pxhj9BzD-DlE7Q7dWqP-83" value="&lt;span style=&quot;font-size: 15px;&quot;&gt;TextChatAtOAI&lt;/span&gt;" style="rounded=1;whiteSpace=wrap;html=1;fillColor=#fff2cc;strokeColor=#d6b656;sketch=1;curveFitting=1;jiggle=2;" parent="1" vertex="1">
          <mxGeometry x="340" y="170" width="120" height="40" as="geometry" />
        </mxCell>
        <mxCell id="5pxhj9BzD-DlE7Q7dWqP-84" value="&lt;span style=&quot;font-size: 15px;&quot;&gt;QwenChatAtDS&lt;/span&gt;" style="rounded=1;whiteSpace=wrap;html=1;fillColor=#fff2cc;strokeColor=#d6b656;gradientColor=none;fillStyle=auto;shadow=0;sketch=1;curveFitting=1;jiggle=2;" parent="1" vertex="1">
          <mxGeometry x="340" y="110" width="120" height="40" as="geometry" />
        </mxCell>
        <mxCell id="5pxhj9BzD-DlE7Q7dWqP-86" value="&lt;font style=&quot;font-size: 15px;&quot;&gt;GithubTrending&lt;/font&gt;" style="rounded=1;whiteSpace=wrap;html=1;fillColor=#f8cecc;strokeColor=#b85450;sketch=1;curveFitting=1;jiggle=2;" parent="1" vertex="1">
          <mxGeometry x="580" y="110" width="110" height="40" as="geometry" />
        </mxCell>
        <mxCell id="5pxhj9BzD-DlE7Q7dWqP-87" value="&lt;font style=&quot;font-size: 15px;&quot;&gt;ImageGen&lt;/font&gt;" style="rounded=1;whiteSpace=wrap;html=1;fillColor=#f8cecc;strokeColor=#b85450;sketch=1;curveFitting=1;jiggle=2;" parent="1" vertex="1">
          <mxGeometry x="580" y="170" width="80" height="40" as="geometry" />
        </mxCell>
        <mxCell id="5pxhj9BzD-DlE7Q7dWqP-88" value="&lt;font style=&quot;font-size: 15px;&quot;&gt;ToDo&lt;/font&gt;" style="rounded=1;whiteSpace=wrap;html=1;fillColor=#f8cecc;strokeColor=#b85450;sketch=1;curveFitting=1;jiggle=2;" parent="1" vertex="1">
          <mxGeometry x="710" y="110" width="50" height="40" as="geometry" />
        </mxCell>
        <mxCell id="5pxhj9BzD-DlE7Q7dWqP-89" value="&lt;font style=&quot;font-size: 15px;&quot;&gt;TreasureBag&lt;/font&gt;" style="rounded=1;whiteSpace=wrap;html=1;fillColor=#f8cecc;strokeColor=#b85450;sketch=1;curveFitting=1;jiggle=2;" parent="1" vertex="1">
          <mxGeometry x="680" y="170" width="90" height="40" as="geometry" />
        </mxCell>
        <mxCell id="5pxhj9BzD-DlE7Q7dWqP-90" value="&lt;font style=&quot;font-size: 15px;&quot;&gt;DoraemonMemory&lt;/font&gt;" style="rounded=1;whiteSpace=wrap;html=1;fillColor=#f8cecc;strokeColor=#b85450;sketch=1;curveFitting=1;jiggle=2;" parent="1" vertex="1">
          <mxGeometry x="580" y="50" width="180" height="40" as="geometry" />
        </mxCell>
        <mxCell id="5pxhj9BzD-DlE7Q7dWqP-91" value="&lt;font style=&quot;font-size: 15px;&quot;&gt;RemoveImageBackground&lt;/font&gt;" style="rounded=1;whiteSpace=wrap;html=1;fillColor=#f8cecc;strokeColor=#b85450;sketch=1;curveFitting=1;jiggle=2;" parent="1" vertex="1">
          <mxGeometry x="580" y="230" width="190" height="40" as="geometry" />
        </mxCell>
        <mxCell id="ZDp6D6EU1gW6EysXJVMl-14" value="同色表示在同一个文件夹，且基类相同&lt;div&gt;&lt;br&gt;&lt;div&gt;非阴影表示基类，阴影表示子类&lt;/div&gt;&lt;div&gt;&lt;br&gt;&lt;/div&gt;&lt;div&gt;箭头表示使用/继承&lt;/div&gt;&lt;/div&gt;" style="text;html=1;align=left;verticalAlign=middle;whiteSpace=wrap;rounded=0;textDirection=vertical-lr;" parent="1" vertex="1">
          <mxGeometry x="810" y="60" width="70" height="245" as="geometry" />
        </mxCell>
        <mxCell id="FcUB3pWpSzq1RaAI_8C1-1" value="&lt;font style=&quot;font-size: 15px;&quot;&gt;&lt;b&gt;main.py&lt;/b&gt;&lt;/font&gt;" style="ellipse;whiteSpace=wrap;html=1;fillColor=#e51400;fontColor=#ffffff;strokeColor=#B20000;" parent="1" vertex="1">
          <mxGeometry x="360" y="459" width="80" height="40" as="geometry" />
        </mxCell>
        <mxCell id="C8lTrhYq0D7tJRm09pKi-5" value="" style="edgeStyle=orthogonalEdgeStyle;rounded=0;orthogonalLoop=1;jettySize=auto;html=1;sketch=1;curveFitting=1;jiggle=2;" parent="1" source="C8lTrhYq0D7tJRm09pKi-2" target="C8lTrhYq0D7tJRm09pKi-4" edge="1">
          <mxGeometry relative="1" as="geometry" />
        </mxCell>
        <mxCell id="C8lTrhYq0D7tJRm09pKi-2" value="&lt;font style=&quot;font-size: 15px;&quot;&gt;DoraemonAgent&lt;/font&gt;" style="rounded=1;whiteSpace=wrap;html=1;fillColor=#ffe6cc;strokeColor=#d79b00;sketch=1;curveFitting=1;jiggle=2;" parent="1" vertex="1">
          <mxGeometry x="820" y="389" width="120" height="40" as="geometry" />
        </mxCell>
        <mxCell id="C8lTrhYq0D7tJRm09pKi-4" value="&lt;span style=&quot;font-size: 15px;&quot;&gt;DoraemonClient&lt;/span&gt;" style="rounded=1;whiteSpace=wrap;html=1;fillColor=#d5e8d4;strokeColor=#82b366;sketch=1;curveFitting=1;jiggle=2;" parent="1" vertex="1">
          <mxGeometry x="820" y="459" width="120" height="40" as="geometry" />
        </mxCell>
        <mxCell id="C8lTrhYq0D7tJRm09pKi-8" value="&lt;b&gt;extra llm call&lt;/b&gt;" style="text;html=1;align=center;verticalAlign=middle;whiteSpace=wrap;rounded=0;" parent="1" vertex="1">
          <mxGeometry x="730" y="380" width="80" height="30" as="geometry" />
        </mxCell>
      </root>
    </mxGraphModel>
  </diagram>
</mxfile>
